<svg width="195" height="70" viewBox="0 0 195 70" fill="none" xmlns="http://www.w3.org/2000/svg">
<g clip-path="url(#clip0_2542_1739)">
<path d="M39.7732 18.1427C39.0426 18.1427 38.4501 18.7289 38.4501 19.4517V26.6886L36.1685 28.9459C35.9197 29.1907 35.7804 29.5244 35.7804 29.871V33.5274L34.3687 34.9241C32.3437 32.9142 29.8486 31.3384 27.0083 30.3824C26.9836 30.3747 26.9588 30.3721 26.9328 30.3657C26.4353 30.1995 25.93 30.0552 25.4156 29.9289C24.366 29.6738 23.2851 29.4986 22.1769 29.4239V22.3274L24.5627 19.9683H33.4246C33.7749 19.9683 34.1122 19.8305 34.3596 19.5844L36.9433 17.0282C37.4603 16.5167 37.4603 15.6883 36.9433 15.1781C36.4263 14.6666 35.589 14.6666 35.0733 15.1781L32.8776 17.3516H24.0157C23.6654 17.3516 23.3281 17.4894 23.0807 17.7355L19.9214 20.8612C19.6739 21.106 19.5333 21.4397 19.5333 21.7863V29.4303C14.7865 29.7537 10.5125 31.7945 7.34666 34.9344L5.92719 33.53V29.8735C5.92719 29.5269 5.78785 29.1933 5.53911 28.9485L3.25754 26.6912V19.4542C3.25754 18.7315 2.66501 18.1452 1.93443 18.1452C1.20386 18.1452 0.611328 18.7315 0.611328 19.4542V27.2323C0.611328 27.5789 0.750671 27.9126 0.999404 28.1574L3.28098 30.4147V34.0711C3.28098 34.4177 3.42032 34.7514 3.66775 34.9962L5.60683 36.9146C3.19633 40.0764 1.76384 44.0073 1.76384 48.2641C1.76384 48.9586 1.80681 49.6814 1.89016 50.4106C1.95918 51.0162 2.44232 51.4954 3.05438 51.5637C3.79147 51.6462 4.52204 51.6887 5.22527 51.6887C5.74357 51.6887 6.25666 51.6668 6.76715 51.6256C6.42726 54.6791 6.83357 57.8563 8.10328 60.8904C8.37285 61.5321 8.69061 62.184 9.05003 62.8256C9.28835 63.2495 9.73502 63.5007 10.2077 63.5007C10.3289 63.5007 10.4513 63.484 10.5737 63.4492C11.2873 63.2469 11.9775 63.0086 12.6274 62.7432C13.1665 62.5216 13.6913 62.2768 14.2005 62.0113C15.1486 64.3318 16.5641 66.4615 18.4068 68.2846C18.903 68.7767 19.4499 69.2573 20.0308 69.7147C20.2717 69.9041 20.5634 69.9994 20.8538 69.9994C21.1442 69.9994 21.4372 69.9041 21.6781 69.7147C22.2589 69.2573 22.8059 68.7754 23.3021 68.2846C25.1461 66.4602 26.5629 64.3266 27.511 62.0049C28.0215 62.2703 28.5424 62.5216 29.0815 62.7432C29.7301 63.0086 30.4203 63.2469 31.1339 63.4492C31.255 63.484 31.3774 63.5007 31.4998 63.5007C31.9713 63.5007 32.4192 63.2508 32.6576 62.8256C33.017 62.184 33.3347 61.5321 33.6043 60.8904C34.848 57.9207 35.2699 54.7306 34.9274 51.6256C34.9652 51.6281 35.0029 51.6294 35.0407 51.632C35.1019 51.6372 35.1644 51.6397 35.2256 51.6436C35.6424 51.6707 36.0604 51.6887 36.4823 51.6887C37.1856 51.6887 37.9161 51.6462 38.6532 51.5637C39.2653 51.4941 39.7484 51.0162 39.8174 50.4106C39.9008 49.6814 39.9438 48.9586 39.9438 48.2641C39.9438 47.9781 39.9359 47.6947 39.9229 47.4125C39.919 47.3184 39.9112 47.2244 39.906 47.1316C39.8943 46.9422 39.8812 46.7541 39.8643 46.5673C39.8539 46.4591 39.8435 46.3509 39.8318 46.2426C39.8122 46.0674 39.7914 45.8922 39.7667 45.7195C39.7523 45.6126 39.738 45.5057 39.7211 45.4C39.6911 45.2042 39.656 45.0096 39.6195 44.8151C39.6052 44.7378 39.5921 44.6592 39.5765 44.5819C39.5231 44.3139 39.4632 44.0498 39.3981 43.7857C39.3812 43.7161 39.3616 43.6478 39.3434 43.5782C39.2913 43.3747 39.2366 43.1737 39.1767 42.9727C39.1533 42.8954 39.1298 42.8181 39.1051 42.7408C39.0426 42.5385 38.9775 42.3375 38.9085 42.1378C38.8876 42.0785 38.8681 42.0206 38.8472 41.9613C38.7561 41.7088 38.6623 41.4575 38.5607 41.2101C38.5607 41.2101 38.5607 41.2089 38.5607 41.2076C37.9344 39.6692 37.1074 38.2249 36.1073 36.9082L38.0398 34.9962C38.2873 34.7514 38.4266 34.4177 38.4266 34.0711V30.4147L40.7082 28.1574C40.9569 27.9126 41.0963 27.5789 41.0963 27.2323V19.4542C41.0963 18.7315 40.5037 18.1452 39.7732 18.1452V18.1427ZM30.8357 60.607C30.5817 60.5181 30.3343 60.424 30.0934 60.3248C29.4865 60.0762 28.9018 59.7927 28.3379 59.4796C27.9277 59.2516 27.5318 59.0042 27.1451 58.744C26.7414 58.4734 26.3507 58.1861 25.9756 57.882C24.5483 56.7263 23.332 55.3413 22.3696 53.7875C23.3919 51.7828 24.0561 49.595 24.3048 47.3223C24.3269 47.3403 24.3504 47.3584 24.3738 47.3764C24.3908 47.3906 24.409 47.4035 24.4272 47.4177C24.465 47.4486 24.5041 47.4782 24.5431 47.5078C24.8726 47.7694 25.2112 48.0193 25.5563 48.259C25.6383 48.3157 25.7217 48.3724 25.805 48.4278C26.0277 48.5759 26.2504 48.7228 26.4783 48.8619C26.5499 48.9058 26.6241 48.9457 26.6971 48.9895C26.8208 49.0629 26.9445 49.1364 27.0695 49.206C27.2453 49.3052 27.4224 49.4031 27.6009 49.4971C27.7897 49.5963 27.9811 49.6904 28.1738 49.7832C28.239 49.8141 28.3041 49.8463 28.3705 49.8772C28.5242 49.9494 28.6791 50.0189 28.8354 50.0859C29.1232 50.2109 29.4123 50.332 29.7066 50.4428C29.8277 50.4879 29.9501 50.5304 30.0713 50.5729C30.3604 50.676 30.6508 50.7726 30.9451 50.8615C31.0401 50.8899 31.1365 50.9195 31.2316 50.9466C31.5532 51.0381 31.8788 51.1205 32.2057 51.1965C32.6537 54.0916 32.3255 57.1013 31.1587 59.8855C31.0584 60.1238 30.9516 60.3635 30.8357 60.6044V60.607ZM20.8538 66.9768C20.6532 66.7977 20.4605 66.6174 20.2769 66.4344C18.5787 64.7543 17.3012 62.7702 16.4886 60.6083C18.1894 59.3946 19.6583 57.9233 20.8538 56.2664C22.0571 57.9336 23.5287 59.3998 25.219 60.607C24.4064 62.7702 23.1289 64.7543 21.4307 66.4357C21.2471 66.6187 21.0543 66.799 20.8538 66.9781V66.9768ZM10.8719 60.607C10.756 60.3661 10.6479 60.1264 10.5489 59.8881C9.35737 57.0407 9.04612 54.0452 9.4902 51.2017C10.8966 50.8783 12.2523 50.4016 13.535 49.7844C14.1172 49.5036 14.6836 49.1944 15.2332 48.8581C15.9677 48.4097 16.6709 47.9137 17.3377 47.3713C18.6673 46.2916 19.8537 45.0367 20.8538 43.6349C20.9163 43.7225 20.9827 43.8088 21.0465 43.8952C21.2354 44.1503 21.4307 44.4015 21.6313 44.6476C21.6729 44.6978 21.712 44.7494 21.7537 44.7983C21.7823 45.7028 21.7341 46.5969 21.613 47.4756C21.4646 48.554 21.2067 49.6054 20.8499 50.6206C20.6402 51.2146 20.4045 51.7982 20.1271 52.3638C19.8901 52.8495 19.6219 53.3198 19.338 53.7798C18.3821 55.3233 17.1671 56.7083 15.7307 57.873C15.3556 58.1771 14.9662 58.4657 14.5612 58.7375C14.1758 58.9965 13.7786 59.24 13.3671 59.4693C12.8032 59.7824 12.2237 60.0775 11.6142 60.3261C11.3733 60.4253 11.1245 60.5194 10.8706 60.6083L10.8719 60.607ZM34.4339 48.9289C34.2698 48.9083 34.1044 48.8942 33.9416 48.8684C33.7918 48.8452 33.6447 48.8156 33.4975 48.7885C33.3295 48.7576 33.1641 48.7215 32.9975 48.6854C32.8946 48.6635 32.7917 48.6455 32.6888 48.621C32.5469 48.5875 32.4062 48.5502 32.2669 48.5128C31.9999 48.4419 31.7356 48.3646 31.4725 48.2809C31.4621 48.2783 31.4517 48.2757 31.4425 48.2719C31.3214 48.2332 31.2003 48.1946 31.0805 48.152C30.7784 48.0477 30.4802 47.933 30.1846 47.8106C30.1012 47.7758 30.0166 47.7436 29.9345 47.7088C29.5673 47.5504 29.2052 47.3803 28.851 47.196C28.8432 47.1922 28.8354 47.1883 28.8276 47.1845C27.9811 46.7425 27.1815 46.222 26.4262 45.6448C26.2361 45.4992 26.0512 45.3498 25.8675 45.1965C25.4599 44.8563 25.064 44.502 24.6903 44.1245C24.672 44.1065 24.6551 44.0871 24.6369 44.0691C24.5366 43.966 24.4442 43.8552 24.3465 43.7496C24.1785 43.5679 24.0079 43.3888 23.8477 43.2007C23.8126 43.1582 23.7774 43.1157 23.7422 43.0732C23.6862 43.0062 23.6354 42.9327 23.5807 42.8645C23.4102 42.6519 23.2396 42.438 23.0794 42.2151C23.0351 42.1533 22.9895 42.0927 22.9465 42.0309C22.7512 41.7513 22.565 41.4653 22.3866 41.1715C22.3775 41.156 22.367 41.1419 22.3566 41.1264C22.3566 41.1264 22.3566 41.1264 22.3566 41.1251C22.4048 41.0285 22.4517 40.9319 22.4986 40.8339C22.914 39.9643 23.2669 39.0559 23.5456 38.1141C23.7162 37.5382 23.4635 36.9443 22.9739 36.6415C22.8736 36.5796 22.7668 36.5255 22.647 36.4907C22.4348 36.4302 22.2212 36.4289 22.018 36.4688C21.5505 36.5616 21.1494 36.8953 21.0062 37.3785C20.9606 37.5343 20.8994 37.6838 20.8499 37.8371C20.7249 38.2146 20.5907 38.587 20.4397 38.9503C20.3915 39.0663 20.3394 39.1783 20.2899 39.293C20.2339 39.4193 20.1818 39.5494 20.1232 39.6744C20.0125 39.9076 19.8927 40.133 19.7716 40.3585C19.6349 40.6149 19.4981 40.8726 19.3484 41.12C19.3484 41.1213 19.3458 41.1225 19.3458 41.1251C18.2818 42.8799 16.8936 44.4067 15.2788 45.6422C13.7708 46.7966 12.0635 47.6934 10.2325 48.2796C9.73242 48.4394 9.22063 48.5721 8.70363 48.6842C8.23221 48.7859 7.75427 48.8671 7.26983 48.9277C6.59656 49.0127 5.91547 49.0694 5.22527 49.0694C4.96481 49.0694 4.69915 49.0629 4.42958 49.0488C4.41656 48.7821 4.40874 48.5192 4.40874 48.2616C4.40874 44.7056 5.57037 41.415 7.53549 38.7351C8.04077 38.0458 8.59684 37.3939 9.2037 36.7922C12.1833 33.8302 16.305 31.9929 20.8525 31.9929C20.941 31.9929 21.0296 31.9981 21.1182 31.9994C21.979 32.0136 22.8241 32.0921 23.6485 32.2326C24.3751 32.3563 25.0862 32.5238 25.7777 32.7389C25.9717 32.7995 26.1618 32.8652 26.3533 32.9322C26.6424 33.034 26.9276 33.1409 27.2089 33.2582C27.3847 33.3316 27.5566 33.4102 27.7285 33.4888C27.8769 33.5571 28.0254 33.6266 28.1712 33.6988C28.8172 34.017 29.4397 34.3739 30.0335 34.7707C30.0413 34.7759 30.0478 34.781 30.0556 34.7862C30.4463 35.0477 30.8188 35.3286 31.1834 35.6185C31.2954 35.7087 31.4061 35.8002 31.5155 35.8929C31.7707 36.1081 32.0181 36.3323 32.2591 36.5616C32.3398 36.6389 32.4232 36.7136 32.5039 36.7935C33.1094 37.3965 33.6668 38.0471 34.1721 38.7364C34.2633 38.8601 34.3544 38.9851 34.4417 39.1113C34.4977 39.1912 34.5498 39.2737 34.6045 39.3549C34.7894 39.6331 34.9639 39.9166 35.1319 40.2065C35.2204 40.3585 35.3077 40.5118 35.391 40.6677C35.4692 40.8133 35.546 40.9602 35.6189 41.1084C35.7596 41.3905 35.8924 41.6753 36.0161 41.9664C36.0578 42.0631 36.0942 42.1623 36.1333 42.2589C36.2401 42.5217 36.3391 42.7897 36.4315 43.059C36.4615 43.1453 36.4927 43.2316 36.5201 43.3193C36.6308 43.6607 36.7285 44.0073 36.817 44.3577C36.8352 44.4337 36.8522 44.5097 36.8704 44.5858C36.9485 44.9207 37.0189 45.2596 37.0762 45.601C37.0827 45.641 37.0918 45.6822 37.0983 45.7221C37.1569 46.0932 37.2012 46.4694 37.2337 46.8482C37.2416 46.9332 37.2468 47.017 37.2533 47.102C37.2806 47.4859 37.3002 47.8712 37.3002 48.2616C37.3002 48.5192 37.2936 48.7821 37.2793 49.0488C37.011 49.0629 36.7441 49.0694 36.4836 49.0694C36.4836 49.0694 36.4836 49.0694 36.4823 49.0694C36.0552 49.0694 35.6306 49.0501 35.2087 49.0166C35.0746 49.0063 34.9417 48.9869 34.8089 48.9728C34.6852 48.9599 34.5615 48.9418 34.4378 48.9264L34.4339 48.9289Z" fill="white"/>
<path d="M19.018 18.6582C19.018 17.9354 18.4255 17.3491 17.6949 17.3491H8.83295L8.08545 16.6096L6.63602 15.1756C6.11902 14.6641 5.28166 14.6641 4.76596 15.1756C4.24896 15.6858 4.24896 16.5143 4.76596 17.0258L7.34966 19.5819C7.5984 19.8267 7.93438 19.9659 8.28469 19.9659H17.6949C18.4255 19.9659 19.018 19.3797 19.018 18.6569V18.6582Z" fill="white"/>
<path d="M12.2988 26.5209C14.3759 26.5209 16.0585 24.855 16.0585 22.8013H8.53786C8.53786 24.8563 10.2217 26.5209 12.2975 26.5209H12.2988Z" fill="white"/>
<path d="M25.6507 22.8013C25.6507 24.4311 26.7108 25.8123 28.1849 26.3147C28.5691 26.4462 28.9806 26.5209 29.4104 26.5209C31.4875 26.5209 33.17 24.855 33.17 22.8013H25.6494H25.6507Z" fill="white"/>
<path d="M1.93443 13.5917C2.66501 13.5917 3.25754 13.0055 3.25754 12.2827C3.25754 11.2236 3.72375 10.2496 4.49469 9.57578L6.68641 10.4738C6.8518 10.5421 7.0237 10.5743 7.19169 10.5743C7.7113 10.5743 8.20356 10.2702 8.41452 9.76646C8.69451 9.09778 8.37415 8.33376 7.69828 8.05676L7.68265 8.05031L7.94831 7.9408L10.4044 8.94704C10.5698 9.01532 10.7417 9.04753 10.9097 9.04753C11.4293 9.04753 11.9215 8.74347 12.1325 8.23971C12.4125 7.57103 12.0921 6.80701 11.4163 6.53L11.4045 6.52485L11.6715 6.41533L14.1224 7.42029C14.2878 7.48857 14.4597 7.52078 14.6276 7.52078C15.1473 7.52078 15.6395 7.21672 15.8505 6.71295C16.1305 6.04428 15.8101 5.28026 15.1342 5.00325L15.1264 5.00067L18.8522 3.47392C19.5268 3.19691 19.8471 2.4316 19.5685 1.76421C19.2885 1.09682 18.5149 0.778588 17.8403 1.05688L15.9729 1.82219L15.9768 1.81317C16.2568 1.14449 15.9364 0.380473 15.2606 0.103467C14.586 -0.173539 13.8124 0.144696 13.5324 0.810798L12.5154 3.23814L12.2549 3.34508L12.2575 3.33993C12.5375 2.67125 12.2171 1.90723 11.5413 1.63022C10.868 1.35321 10.0931 1.67145 9.81316 2.33755L8.79869 4.76103L8.53824 4.86797C8.81823 4.198 8.49787 3.43269 7.82199 3.15697C7.14742 2.88126 6.37387 3.1982 6.09388 3.8643L5.08072 6.28392L4.50641 6.51969C4.50641 6.51969 4.50121 6.51969 4.4986 6.52227C4.17564 6.65498 3.86961 6.81345 3.5805 6.99125C3.57659 6.99383 3.57399 6.99511 3.57008 6.99769C1.74691 8.12246 0.611328 10.1014 0.611328 12.2827C0.611328 13.0055 1.20386 13.5917 1.93443 13.5917Z" fill="white"/>
<path d="M22.8538 3.47202L26.5796 4.99877L26.5718 5.00135C25.8972 5.27835 25.5768 6.04366 25.8555 6.71105C26.0665 7.21482 26.5587 7.51888 27.0784 7.51888C27.2476 7.51888 27.4182 7.48667 27.5836 7.41838L30.0345 6.41343L30.3015 6.52294L30.2897 6.5281C29.6152 6.8051 29.2948 7.57041 29.5735 8.2378C29.7845 8.74157 30.2767 9.04563 30.7963 9.04563C30.9656 9.04563 31.1362 9.01342 31.3016 8.94514L33.7564 7.9389L34.022 8.04841L34.0064 8.05485C33.3318 8.33186 33.0115 9.09717 33.2902 9.76456C33.5011 10.2683 33.9934 10.5724 34.513 10.5724C34.6823 10.5724 34.8529 10.5402 35.0183 10.4719L37.21 9.57387C37.9809 10.2477 38.4472 11.2217 38.4472 12.2808C38.4472 13.0036 39.0397 13.5898 39.7703 13.5898C40.5008 13.5898 41.0934 13.0036 41.0934 12.2808C41.0934 10.1008 39.9591 8.12314 38.1359 6.99579C38.1294 6.99192 38.1242 6.98806 38.119 6.98419C37.8299 6.80768 37.5265 6.64921 37.2048 6.51779C37.2022 6.51779 37.1996 6.51779 37.197 6.51521L36.6227 6.27944L35.6095 3.85982C35.3308 3.19243 34.556 2.87549 33.8814 3.15249C33.2068 3.4295 32.8865 4.19481 33.1652 4.8622L32.9047 4.75655L31.8902 2.33307C31.6102 1.66439 30.8367 1.34745 30.1621 1.62574C29.4875 1.90275 29.1672 2.66806 29.4459 3.33545L29.4485 3.3406L29.188 3.23366L28.171 0.806319C27.891 0.13764 27.1174 -0.179306 26.4428 0.0989884C25.7683 0.375994 25.4479 1.1413 25.7266 1.80869L25.7305 1.81771L23.863 1.0524C23.1898 0.775398 22.4149 1.09363 22.1349 1.75973C21.8549 2.42841 22.1753 3.19243 22.8512 3.46944L22.8538 3.47202Z" fill="white"/>
<path d="M64.7587 16.292H69.3831L66.0493 32.8711H61.4249L64.7587 16.292ZM66.1183 22.4145H78.6305L77.8127 26.4819H65.3005L66.1183 22.4145ZM77.9416 16.292H82.5894L79.2556 32.8711H74.6078L77.9416 16.292Z" fill="#EA5B0C"/>
<path d="M89.255 24.5809L86.8223 31.2342L85.3638 29.156H98.1885L97.4423 32.8692H81.8685L84.809 24.5796L85.2023 16.29H100.664L99.918 20.0045H87.2039L89.4985 17.9263L89.255 24.5796V24.5809ZM98.7042 22.9227L98.0375 26.2378H85.7701L86.4369 22.9227H98.7042Z" fill="#EA5B0C"/>
<path d="M105.192 23.5411H111.292C112.037 23.5411 112.652 23.3724 113.138 23.0322C113.622 22.6934 113.927 22.2218 114.048 21.6176C114.173 20.9991 114.058 20.5237 113.708 20.1926C113.358 19.8602 112.809 19.6953 112.065 19.6953H105.316L107.835 17.5063L104.746 32.8692H100.121L103.455 16.29H113.398C114.68 16.29 115.751 16.5155 116.615 16.9652C117.477 17.4148 118.098 18.0332 118.476 18.8217C118.853 19.6102 118.934 20.543 118.718 21.6189C118.507 22.665 118.054 23.5862 117.358 24.3825C116.662 25.1787 115.792 25.7971 114.751 26.2391C113.708 26.681 112.546 26.9026 111.265 26.9026H104.517L105.192 23.5424V23.5411ZM107.379 25.1104H112.585L117.035 32.8692H111.673L107.379 25.1104Z" fill="#EA5B0C"/>
<path d="M138.944 25.9298C138.487 27.3896 137.723 28.6677 136.653 29.7654C135.583 30.8631 134.299 31.7147 132.8 32.319C131.301 32.9233 129.658 33.2248 127.87 33.2248C125.918 33.2248 124.285 32.864 122.971 32.1412C121.655 31.4197 120.723 30.4096 120.172 29.1122C119.62 27.8161 119.518 26.3048 119.866 24.5809C120.212 22.857 120.921 21.3457 121.994 20.0496C123.066 18.7535 124.406 17.7433 126.011 17.0206C127.616 16.2991 129.393 15.937 131.345 15.937C133.132 15.937 134.655 16.2385 135.911 16.8428C137.168 17.447 138.109 18.2986 138.738 19.3964C139.366 20.4941 139.616 21.7722 139.486 23.2319H134.839C134.832 22.5246 134.664 21.9242 134.33 21.4307C133.997 20.9373 133.511 20.5572 132.872 20.2918C132.232 20.0264 131.457 19.8937 130.55 19.8937C129.507 19.8937 128.568 20.0818 127.733 20.4567C126.898 20.8329 126.208 21.3715 125.666 22.0711C125.123 22.772 124.753 23.6069 124.558 24.5796C124.363 25.5523 124.395 26.3885 124.657 27.0894C124.919 27.789 125.391 28.3275 126.075 28.7025C126.76 29.0774 127.624 29.2668 128.665 29.2668C129.573 29.2668 130.399 29.1418 131.142 28.8906C131.886 28.6406 132.524 28.2644 133.057 27.7632C133.589 27.262 134.002 26.6501 134.298 25.9285H138.944V25.9298Z" fill="#EA5B0C"/>
<path d="M145.697 25.4654C145.545 26.2165 145.56 26.8697 145.74 27.4225C145.919 27.9752 146.266 28.3991 146.78 28.6928C147.293 28.9879 147.968 29.1347 148.802 29.1347C149.637 29.1347 150.389 28.9879 151.014 28.6928C151.639 28.3978 152.148 27.9739 152.543 27.4225C152.936 26.8697 153.211 26.2178 153.36 25.4654L155.204 16.292H159.851L157.961 25.687C157.657 27.2047 157.037 28.5279 156.102 29.6553C155.167 30.7826 154.004 31.66 152.613 32.2862C151.221 32.9123 149.675 33.2254 147.978 33.2254C146.281 33.2254 144.879 32.9123 143.731 32.2862C142.584 31.66 141.769 30.7826 141.288 29.6553C140.807 28.5279 140.719 27.2047 141.025 25.687L142.915 16.292H147.539L145.695 25.4654H145.697Z" fill="#EA5B0C"/>
<path d="M167.38 16.292L164.455 30.838L162.787 28.8049H175.321L174.503 32.8724H159.422L162.755 16.2933H167.38V16.292Z" fill="#EA5B0C"/>
<path d="M183.365 24.5809L180.933 31.2342L179.474 29.156H192.299L191.553 32.8692H175.979L178.919 24.5796L179.313 16.29H194.774L194.028 20.0045H181.314L183.609 17.9263L183.365 24.5796V24.5809ZM192.816 22.9227L192.149 26.2378H179.882L180.549 22.9227H192.816Z" fill="#EA5B0C"/>
<path d="M77.3627 44.559H82.099L75.559 50.5268C74.6448 51.3669 73.7632 52.0484 72.9128 52.5715C72.0637 53.0946 71.1821 53.4747 70.2705 53.7105C69.3589 53.9462 68.3536 54.0635 67.2505 54.0635C65.8506 54.0635 64.6916 53.8457 63.7735 53.4115C62.8554 52.9774 62.2029 52.3911 61.8136 51.6542C61.4255 50.9172 61.3265 50.0772 61.5167 49.1341C61.682 48.3095 62.0571 47.5571 62.6405 46.8794C63.2239 46.2017 64.0365 45.6348 65.0823 45.1774C66.1267 44.7213 67.4316 44.4185 68.9956 44.2716L69.579 46.0406C68.6166 46.2326 67.8379 46.5457 67.2453 46.9799C66.6515 47.4153 66.2934 47.9346 66.1723 48.5388C66.0928 48.9369 66.1423 49.3016 66.3207 49.6327C66.4991 49.9651 66.783 50.2266 67.1685 50.4173C67.554 50.6093 68.0384 50.7046 68.6192 50.7046C69.6623 50.7046 70.57 50.5062 71.3423 50.1081C72.1158 49.71 72.8086 49.2011 73.4259 48.5826L77.3627 44.5602V44.559ZM79.0934 41.8391H74.5576C74.5927 41.2942 74.4417 40.8406 74.1044 40.4799C73.7671 40.1191 73.2188 39.9388 72.4596 39.9388C72.0116 39.9388 71.617 39.998 71.2732 40.1153C70.9281 40.2338 70.6534 40.4026 70.445 40.6242C70.2366 40.8458 70.1038 41.0957 70.0478 41.3766C70.0009 41.6124 70.0231 41.8482 70.1181 42.0839C70.2119 42.3197 70.3968 42.571 70.6716 42.8364L81.2434 53.713H75.546L66.7961 44.7819C66.2647 44.2369 65.8415 43.6584 65.525 43.0464C65.2086 42.4344 65.1213 41.776 65.2633 41.0674C65.4352 40.2132 65.8454 39.4646 66.4965 38.8243C67.1464 38.1827 68.0137 37.6828 69.0998 37.3207C70.1859 36.96 71.4569 36.7783 72.918 36.7783C74.3792 36.7783 75.6332 36.9999 76.5943 37.4418C77.5554 37.8838 78.2456 38.488 78.6649 39.2546C79.0843 40.0212 79.2275 40.8832 79.0947 41.8417L79.0934 41.8391Z" fill="#EA5B0C"/>
<path d="M90.4743 37.1304H95.0987L91.7648 53.7095H87.1405L90.4743 37.1304ZM91.8339 43.2528H104.346L103.528 47.3203H91.016L91.8339 43.2528ZM103.657 37.1304H108.305L104.971 53.7095H100.323L103.657 37.1304Z" fill="#EA5B0C"/>
<path d="M117.234 54.0631C115.252 54.0631 113.586 53.7024 112.234 52.9796C110.882 52.2581 109.922 51.248 109.357 49.9506C108.791 48.6531 108.681 47.1431 109.028 45.4193C109.375 43.6941 110.092 42.1841 111.179 40.888C112.266 39.5905 113.631 38.5817 115.273 37.8589C116.915 37.1361 118.727 36.7754 120.709 36.7754C122.691 36.7754 124.375 37.1361 125.72 37.8589C127.064 38.5804 128.022 39.5905 128.597 40.888C129.17 42.1841 129.284 43.6954 128.937 45.4193C128.59 47.1431 127.869 48.6544 126.775 49.9506C125.678 51.248 124.315 52.2568 122.681 52.9796C121.045 53.7011 119.231 54.0631 117.234 54.0631ZM118.056 49.9738C119.144 49.9738 120.119 49.7895 120.981 49.421C121.845 49.0525 122.557 48.5295 123.118 47.8518C123.679 47.1741 124.054 46.3637 124.243 45.4206C124.433 44.4774 124.384 43.667 124.096 42.9893C123.808 42.3116 123.306 41.7873 122.591 41.4201C121.876 41.0516 120.975 40.8673 119.887 40.8673C118.8 40.8673 117.847 41.0516 116.983 41.4201C116.12 41.7886 115.404 42.3116 114.836 42.9893C114.267 43.667 113.889 44.4774 113.699 45.4206C113.51 46.3637 113.562 47.1741 113.858 47.8518C114.153 48.5295 114.659 49.0525 115.374 49.421C116.088 49.7895 116.983 49.9738 118.056 49.9738Z" fill="#EA5B0C"/>
<path d="M142.403 37.1304C143.803 37.1304 144.964 37.3661 145.89 37.8377C146.816 38.3093 147.461 38.9766 147.824 39.8386C148.186 40.7005 148.253 41.7068 148.021 42.856C147.793 43.9911 147.324 44.9896 146.614 45.8515C145.905 46.7135 144.993 47.3809 143.877 47.8524C142.761 48.324 141.504 48.5598 140.104 48.5598H132.843L133.58 44.8904H140.551C141.296 44.8904 141.913 44.71 142.403 44.348C142.892 43.9872 143.201 43.4899 143.329 42.856C143.459 42.208 143.352 41.7029 143.008 41.3409C142.663 40.9801 142.119 40.7997 141.374 40.7997H134.805L137.311 38.6777L134.288 53.7108H129.664L132.998 37.1317H142.404L142.403 37.1304Z" fill="#EA5B0C"/>
<path d="M148.182 48.2718H152.896C152.878 48.7292 153.014 49.126 153.303 49.4661C153.593 49.805 154.02 50.0665 154.586 50.2508C155.153 50.435 155.845 50.5265 156.665 50.5265C157.796 50.5265 158.718 50.3822 159.432 50.0949C160.146 49.8075 160.558 49.3837 160.67 48.8245C160.756 48.3968 160.637 48.0656 160.312 47.8299C159.987 47.5941 159.306 47.4253 158.269 47.3209L155.198 47.0336C152.931 46.8275 151.359 46.3083 150.484 45.4747C149.609 44.6424 149.315 43.5176 149.598 42.1029C149.83 40.9537 150.364 39.9809 151.202 39.1847C152.039 38.3898 153.113 37.7881 154.423 37.3835C155.733 36.979 157.208 36.7754 158.846 36.7754C160.484 36.7754 161.84 37.0009 163 37.4492C164.16 37.8989 165.028 38.5366 165.598 39.3612C166.17 40.1871 166.376 41.1444 166.215 42.2356H161.523C161.544 41.8375 161.423 41.4948 161.16 41.2075C160.897 40.9202 160.506 40.6986 159.987 40.544C159.466 40.3894 158.819 40.312 158.045 40.312C157.002 40.312 156.148 40.4486 155.482 40.7218C154.817 40.9936 154.431 41.3956 154.324 41.9264C154.248 42.3091 154.367 42.6196 154.685 42.8541C155.003 43.0898 155.629 43.2522 156.566 43.3398L159.828 43.6722C161.392 43.8191 162.615 44.0742 163.495 44.4349C164.375 44.7957 164.968 45.293 165.273 45.9269C165.577 46.5608 165.635 47.3493 165.444 48.2924C165.21 49.4571 164.657 50.4698 163.784 51.3317C162.91 52.1937 161.792 52.8649 160.431 53.3429C159.069 53.8222 157.545 54.0606 155.862 54.0606C154.18 54.0606 152.659 53.8209 151.437 53.3429C150.214 52.8636 149.32 52.1859 148.752 51.3098C148.183 50.4324 147.991 49.4197 148.179 48.2705L148.182 48.2718Z" fill="#EA5B0C"/>
</g>
<defs>
<clipPath id="clip0_2542_1739">
<rect width="194.163" height="70" fill="white" transform="translate(0.611328)"/>
</clipPath>
</defs>
</svg>
